<svg version="1.1" id="Layer_1" xmlns="http://www.w3.org/2000/svg" xmlns:xlink="http://www.w3.org/1999/xlink" x="0px" y="0px"
	 width="100%" viewBox="0 0 471 530" enable-background="new 0 0 471 530" xml:space="preserve">
<path fill="#000000" opacity="1.000000" stroke="none" 
	d="
M472.000000,154.000000 
	C472.000000,279.999969 472.000000,405.499969 472.000000,531.000000 
	C315.000061,531.000000 158.000137,531.000000 1.000152,531.000000 
	C1.000101,354.333435 1.000101,177.666885 1.000051,1.000246 
	C157.999863,1.000164 314.999725,1.000164 471.999786,1.000082 
	C472.000000,51.833332 472.000000,102.666664 472.000000,154.000000 
M277.969940,44.427555 
	C277.657532,44.256237 277.345154,44.084919 277.018585,43.986645 
	C277.018585,43.986645 277.087097,43.957619 276.940430,43.384838 
	C276.591797,43.298584 276.243164,43.212330 275.531708,43.013866 
	C275.531708,43.013866 275.152527,42.992088 274.929260,42.486324 
	C274.624054,42.297909 274.318848,42.109493 274.009399,41.991173 
	C274.009399,41.991173 274.079163,41.982937 273.933746,41.457050 
	C273.630463,41.278725 273.327179,41.100399 273.013428,40.991280 
	C273.013428,40.991280 273.078979,40.966755 272.918518,40.405491 
	C272.572083,40.320278 272.225647,40.235065 271.408508,39.920280 
	C271.000092,39.611149 270.591675,39.302017 269.961487,38.435791 
	C269.611938,38.345169 269.262390,38.254543 268.293365,37.828678 
	C258.728149,32.848644 249.478622,27.080286 239.516647,23.091118 
	C227.471588,18.267809 215.036133,13.923621 202.370300,11.299650 
	C191.787567,9.107241 180.627213,9.729120 169.726974,9.036756 
	C155.625427,8.141049 142.047440,11.519155 128.335129,13.915093 
	C113.950035,16.428585 100.814415,22.372011 87.893982,28.722786 
	C69.116859,37.952297 53.781967,51.640392 40.185452,67.336823 
	C30.209776,78.853180 22.623051,91.863068 17.498287,106.193565 
	C13.551623,117.229729 9.895185,128.396973 10.023935,140.364166 
	C10.124394,149.701630 9.147922,159.181290 10.433095,168.347778 
	C12.990335,186.587265 20.458696,203.373932 28.035084,220.527725 
	C28.341690,220.712204 28.648294,220.896683 29.102432,221.517914 
	C29.102432,221.517914 29.184456,221.971542 29.046015,222.514175 
	C29.348660,222.692932 29.651302,222.871689 30.119564,223.505539 
	C30.119564,223.505539 30.230993,223.976837 30.094538,224.492874 
	C30.383514,224.660904 30.672489,224.828934 30.977013,225.022171 
	C30.977013,225.022171 31.004232,225.033875 31.024311,225.794815 
	C31.053120,226.293045 30.938543,226.856506 31.131275,227.280167 
	C41.770863,250.669373 52.451706,274.039795 63.090908,297.429199 
	C67.127686,306.303711 70.997658,315.254639 75.081116,324.107300 
	C80.625946,336.128113 86.302757,348.087982 92.035553,360.820862 
	C93.702293,364.830994 95.226204,368.907898 97.063927,372.838074 
	C101.632431,382.608521 106.344025,392.312073 111.090485,402.510406 
	C111.090485,402.510406 111.243553,402.962097 111.079124,403.572723 
	C111.372093,404.057098 111.665070,404.541504 112.042931,405.762024 
	C129.343018,444.188141 146.643112,482.614227 163.991913,521.024658 
	C163.991913,521.024658 163.947571,521.027588 164.012100,521.653992 
	C164.335052,522.128296 164.658020,522.602539 165.258530,523.719604 
	C168.819794,528.992126 174.151474,528.925537 176.824585,523.379456 
	C179.718002,517.376343 182.277908,511.212433 185.485733,504.883026 
	C185.584793,504.552460 185.683853,504.221924 185.917999,503.513214 
	C185.917999,503.513214 185.971375,503.115265 186.500427,502.877808 
	C186.599319,502.528320 186.698212,502.178833 186.932083,501.273682 
	C186.951477,500.892975 186.970871,500.512268 187.502747,499.902863 
	C187.604218,499.570221 187.705673,499.237579 187.934006,498.533752 
	C187.934006,498.533752 187.983521,498.144623 188.623108,497.794495 
	C191.441147,491.210052 194.259186,484.625580 197.016632,478.005585 
	C197.016632,478.005585 197.023087,478.075531 197.541046,477.878967 
	C197.642303,477.546967 197.743561,477.214935 197.971497,476.559448 
	C197.971497,476.559448 198.003036,476.213531 198.513016,475.933685 
	C198.609756,475.590698 198.706497,475.247711 198.925903,474.509125 
	C198.925903,474.509125 199.003418,474.102264 199.637161,473.778137 
	C199.700363,472.856750 199.763565,471.935364 199.973831,470.285095 
	C201.846848,467.113464 204.040771,464.086090 205.541565,460.747131 
	C216.538086,436.281982 227.329376,411.724670 238.318878,387.256348 
	C246.627853,368.756348 255.218155,350.382660 263.532501,331.885040 
	C275.681396,304.856445 287.704773,277.771423 299.761261,250.701385 
	C303.861298,241.495636 307.899628,232.262390 312.039673,223.026779 
	C312.039673,223.026779 312.037598,222.951828 312.512054,222.856445 
	C312.854462,222.656815 312.943451,222.376633 313.092133,221.344986 
	C317.702606,210.445862 323.420746,199.863525 326.650665,188.569595 
	C330.945526,173.551956 335.293671,158.268005 331.529694,142.131332 
	C329.090271,131.673126 328.956635,120.529861 325.487946,110.488731 
	C317.607300,87.675957 304.829681,67.714508 285.902283,51.486263 
	C285.604980,51.298794 285.307648,51.111328 285.005737,50.993149 
	C285.005737,50.993149 285.074951,50.987530 284.904205,50.475887 
	C284.608124,50.287411 284.312012,50.098934 284.013550,49.985504 
	C284.013550,49.985504 284.088562,49.982483 283.937408,49.454525 
	C283.632446,49.273628 283.327454,49.092735 283.023071,48.986252 
	C283.023071,48.986252 283.085449,48.945629 282.873108,48.309071 
	C281.923676,47.847279 280.974213,47.385490 280.009125,46.990974 
	C280.009125,46.990974 280.078125,46.987587 279.911194,46.471794 
	C279.613129,46.283859 279.315033,46.095924 279.013458,45.984745 
	C279.013458,45.984745 279.090271,45.982735 278.939911,45.453701 
	C278.634827,45.271732 278.329773,45.089764 278.030151,44.982670 
	C278.030151,44.982670 278.103729,44.967831 277.969940,44.427555 
z"/>
<path fill="#F85A6A" opacity="1.000000" stroke="none" 
	d="
M275.152527,42.992088 
	C275.152527,42.992088 275.531708,43.013866 275.858215,43.278587 
	C276.485504,43.681412 276.786316,43.819511 277.087097,43.957619 
	C277.087097,43.957619 277.018585,43.986645 277.116913,44.201897 
	C277.511414,44.600712 277.807556,44.784271 278.103729,44.967834 
	C278.103729,44.967831 278.030151,44.982670 278.129883,45.189758 
	C278.516510,45.592140 278.803406,45.787434 279.090271,45.982731 
	C279.090271,45.982735 279.013458,45.984745 279.119446,46.189796 
	C279.509674,46.592426 279.793915,46.790009 280.078125,46.987587 
	C280.078125,46.987587 280.009125,46.990974 280.063232,47.312653 
	C281.106720,48.071430 282.096100,48.508530 283.085449,48.945625 
	C283.085449,48.945629 283.023071,48.986252 283.124512,49.193939 
	C283.513458,49.595242 283.801025,49.788864 284.088562,49.982483 
	C284.088562,49.982483 284.013550,49.985504 284.120605,50.189262 
	C284.510101,50.591190 284.792542,50.789360 285.074951,50.987530 
	C285.074951,50.987530 285.005737,50.993149 285.122253,51.196716 
	C285.523865,51.597332 285.808929,51.794384 286.094025,51.991440 
	C304.829681,67.714508 317.607300,87.675957 325.487946,110.488731 
	C328.956635,120.529861 329.090271,131.673126 331.529694,142.131332 
	C335.293671,158.268005 330.945526,173.551956 326.650665,188.569595 
	C323.420746,199.863525 317.702606,210.445862 312.749695,221.781342 
	C312.167145,222.403549 312.043945,222.648270 312.037598,222.951828 
	C312.037598,222.951828 312.039673,223.026779 311.661682,223.065613 
	C309.513977,225.725281 307.744232,228.346130 305.700195,231.109863 
	C304.622101,232.171402 303.818298,233.090042 302.773926,234.177612 
	C302.353668,234.893051 302.173981,235.439545 301.658936,236.040573 
	C298.599976,239.169037 296.102081,242.484940 293.112427,245.273636 
	C282.104584,255.541580 270.126373,264.539612 256.682129,272.108093 
	C228.180618,287.505096 197.826462,293.749207 165.592316,294.023804 
	C147.696487,292.468964 130.521149,290.070221 113.642708,284.650238 
	C96.820938,279.248444 81.852516,270.907776 67.714424,260.768097 
	C60.883392,255.868927 54.554779,250.269211 47.703987,244.824310 
	C45.944530,242.772186 44.479771,240.882446 42.889328,238.727020 
	C42.172668,237.967331 41.581699,237.473358 40.929745,236.637634 
	C39.307201,234.342850 37.811440,232.332153 36.165554,230.452957 
	C34.523411,228.578033 32.730850,226.834824 31.004232,225.033875 
	C31.004232,225.033875 30.977013,225.022171 30.918713,224.796265 
	C30.720310,224.298615 30.510504,224.100769 30.230993,223.976837 
	C30.230993,223.976837 30.119564,223.505539 29.977390,223.056534 
	C29.678490,222.333954 29.461569,222.121948 29.184456,221.971542 
	C29.184456,221.971542 29.102432,221.517914 28.961849,221.074493 
	C28.656559,220.355835 28.435875,220.137024 28.159212,219.974670 
	C20.458696,203.373932 12.990335,186.587265 10.433095,168.347778 
	C9.147922,159.181290 10.124394,149.701630 10.023935,140.364166 
	C9.895185,128.396973 13.551623,117.229729 17.498287,106.193565 
	C22.623051,91.863068 30.209776,78.853180 40.185452,67.336823 
	C53.781967,51.640392 69.116859,37.952297 87.893982,28.722786 
	C100.814415,22.372011 113.950035,16.428585 128.335129,13.915093 
	C142.047440,11.519155 155.625427,8.141049 169.726974,9.036756 
	C180.627213,9.729120 191.787567,9.107241 202.370300,11.299650 
	C215.036133,13.923621 227.471588,18.267809 239.516647,23.091118 
	C249.478622,27.080286 258.728149,32.848644 268.762756,38.205681 
	C269.549164,38.719418 269.866211,38.856148 270.183258,38.992882 
	C270.591675,39.302017 271.000092,39.611149 271.793091,40.239525 
	C272.478119,40.694767 272.778564,40.830765 273.078979,40.966759 
	C273.078979,40.966755 273.013428,40.991280 273.115051,41.202438 
	C273.504181,41.603378 273.791687,41.793159 274.079163,41.982941 
	C274.079163,41.982937 274.009399,41.991173 274.125305,42.205280 
	C274.544983,42.610287 274.848755,42.801186 275.152527,42.992088 
M154.528839,273.960266 
	C197.017136,277.788086 235.506271,267.664429 268.751709,240.392197 
	C293.591003,220.015762 309.490723,193.825760 312.590057,161.761017 
	C317.443481,111.549393 295.367828,73.690727 254.163651,46.714928 
	C223.516876,26.650902 189.220779,19.842344 152.943985,24.048454 
	C113.452591,28.627285 80.010696,45.070549 54.763409,76.443497 
	C12.845801,128.531448 23.024216,198.955231 73.660683,240.715759 
	C96.917130,259.895630 123.791336,270.501556 154.528839,273.960266 
z"/>
<path fill="#C6344D" opacity="1.000000" stroke="none" 
	d="
M198.003036,476.213531 
	C198.003036,476.213531 197.971497,476.559448 197.705185,476.871033 
	C197.300278,477.480225 197.161682,477.777893 197.023071,478.075531 
	C197.023087,478.075531 197.016632,478.005585 196.770599,477.994324 
	C196.339325,477.982941 196.154114,477.982819 195.684387,478.128967 
	C194.943771,479.187012 194.487701,480.098877 193.881790,481.349365 
	C192.609100,484.587433 191.415344,487.461975 190.384842,490.393890 
	C189.488571,492.943787 188.776810,495.558533 187.983521,498.144623 
	C187.983521,498.144623 187.934006,498.533752 187.671783,498.878052 
	C187.269791,499.525421 187.130020,499.828491 186.990265,500.131561 
	C186.970871,500.512268 186.951477,500.892975 186.653137,501.714050 
	C186.239914,502.474731 186.105652,502.794983 185.971375,503.115265 
	C185.971375,503.115265 185.917999,503.513214 185.655945,503.863373 
	C185.257019,504.515228 185.120132,504.816956 184.983276,505.118683 
	C182.277908,511.212433 179.718002,517.376343 176.824585,523.379456 
	C174.151474,528.925537 168.819794,528.992126 165.110489,523.087585 
	C164.624161,521.979553 164.285873,521.503601 163.947571,521.027588 
	C163.947571,521.027588 163.991913,521.024658 164.015671,520.617920 
	C164.348068,516.808289 164.656708,513.405334 164.975525,509.533569 
	C164.983490,500.042755 164.981277,491.020721 164.985565,481.530212 
	C165.002991,474.042358 165.013885,467.022919 165.415558,460.004120 
	C168.859879,459.881012 169.885803,461.522766 169.742493,464.356506 
	C169.453323,470.074738 169.146866,475.794922 169.025436,481.518097 
	C168.888077,487.993408 168.057114,494.387146 174.688660,499.189087 
	C177.610336,501.304718 177.986877,501.141846 179.423721,498.473633 
	C181.212204,495.152466 183.245468,491.951630 185.349533,488.817322 
	C186.247513,487.479767 188.135666,486.640137 188.647278,485.236450 
	C192.599503,474.393250 196.321259,463.466064 200.125000,452.568604 
	C200.539520,451.381042 201.245422,450.251312 201.431534,449.035858 
	C202.097794,444.684998 202.213257,440.204224 203.355774,435.994812 
	C203.798447,434.363861 206.423477,433.325226 208.046936,432.432800 
	C207.942169,434.000061 208.053467,435.216888 207.715317,436.292389 
	C204.155350,447.615051 200.447327,458.892059 197.010422,470.251373 
	C196.591019,471.637512 197.520981,473.431915 197.878922,475.329834 
	C197.955856,475.819580 197.979446,476.016541 198.003036,476.213531 
z"/>
<path fill="#D54B5F" opacity="1.000000" stroke="none" 
	d="
M197.825577,475.037109 
	C197.520981,473.431915 196.591019,471.637512 197.010422,470.251373 
	C200.447327,458.892059 204.155350,447.615051 207.715317,436.292389 
	C208.053467,435.216888 207.942169,434.000061 208.294403,432.320801 
	C209.023087,431.524292 209.496887,431.255768 210.350235,430.986572 
	C218.224915,430.177887 219.180573,423.013550 221.740921,418.321198 
	C227.577408,407.624756 231.996506,396.154907 237.000519,384.624237 
	C238.008057,381.500824 239.006561,378.752472 240.359802,375.930786 
	C243.140823,370.597870 245.833725,365.439758 247.888840,360.038971 
	C249.039001,357.016418 248.422958,353.226044 249.863647,350.431702 
	C252.146255,346.004364 255.906723,342.346252 258.253815,337.942627 
	C260.360992,333.989105 264.546570,329.981934 260.886658,325.795898 
	C262.814697,323.674957 264.925415,322.194611 265.851379,320.171906 
	C268.331207,314.754974 266.762970,307.515533 273.295654,303.893127 
	C273.638275,303.703156 273.682343,303.011414 273.914185,302.579468 
	C276.381042,297.983795 274.051178,291.104126 280.627655,288.455048 
	C280.737122,288.410919 280.767578,288.164276 280.829803,288.010071 
	C284.489136,278.938354 287.364899,269.437256 292.033966,260.919067 
	C296.423065,252.911697 300.637207,245.092743 301.994324,235.986038 
	C302.173981,235.439545 302.353668,234.893051 303.143433,234.166656 
	C304.493866,232.980164 305.234192,231.973572 305.974487,230.966980 
	C307.744232,228.346130 309.513977,225.725281 311.624939,223.073074 
	C307.899628,232.262390 303.861298,241.495636 299.761261,250.701385 
	C287.704773,277.771423 275.681396,304.856445 263.532501,331.885040 
	C255.218155,350.382660 246.627853,368.756348 238.318878,387.256348 
	C227.329376,411.724670 216.538086,436.281982 205.541565,460.747131 
	C204.040771,464.086090 201.846848,467.113464 199.668823,470.887909 
	C199.243683,472.361237 199.123550,473.231750 199.003418,474.102264 
	C199.003418,474.102264 198.925903,474.509125 198.619781,474.737610 
	C198.313660,474.966095 197.825577,475.037109 197.825577,475.037109 
z"/>
<path fill="#E1455B" opacity="1.000000" stroke="none" 
	d="
M111.243561,402.962097 
	C111.243553,402.962097 111.090485,402.510406 111.050781,401.862366 
	C110.007629,398.142853 109.004166,395.071442 108.333344,392.032013 
	C109.777428,391.709351 110.888863,391.354675 112.364738,391.047394 
	C113.365166,391.576294 114.478447,391.987793 114.560921,392.550415 
	C115.167320,396.686523 117.484573,398.984711 121.121239,401.084351 
	C123.394363,402.396790 126.273125,406.837006 125.575546,408.367828 
	C123.058640,413.891174 127.777084,417.273956 127.654510,421.943359 
	C134.270615,419.478455 134.847549,420.010529 135.055710,426.810455 
	C135.155640,430.074951 132.709534,434.073181 137.414459,436.379669 
	C137.904327,436.619812 137.699493,438.508453 137.623428,439.618988 
	C137.500198,441.418427 137.216537,443.206909 136.661118,445.059998 
	C135.544922,446.416504 134.768204,447.713043 133.727722,448.785461 
	C128.912323,438.318115 124.475784,428.021393 119.755280,417.856598 
	C117.719742,413.473389 117.638298,408.023376 112.987846,404.677368 
	C112.376732,403.907227 111.810143,403.434662 111.243561,402.962097 
z"/>
<path fill="#CE5063" opacity="1.000000" stroke="none" 
	d="
M31.014271,225.414337 
	C32.730850,226.834824 34.523411,228.578033 36.165554,230.452957 
	C37.811440,232.332153 39.307201,234.342850 40.688614,236.812881 
	C40.336220,237.886978 40.163975,238.444107 39.991474,239.398270 
	C41.929852,244.265610 43.848572,248.744675 45.810825,253.204575 
	C51.858234,266.949402 57.857346,280.716217 64.033424,294.403107 
	C65.302650,297.215881 67.652832,299.556213 68.823982,302.395142 
	C72.774796,311.972107 76.365807,321.696747 80.199783,331.322937 
	C82.635818,337.439240 88.761635,341.650818 88.536041,349.336304 
	C88.434227,352.804474 90.872726,356.347198 92.099648,359.910461 
	C92.040619,359.964844 91.922966,360.074005 91.922966,360.074005 
	C86.302757,348.087982 80.625946,336.128113 75.081116,324.107300 
	C70.997658,315.254639 67.127686,306.303711 63.090908,297.429199 
	C52.451706,274.039795 41.770863,250.669373 31.131275,227.280167 
	C30.938543,226.856506 31.053120,226.293045 31.014271,225.414337 
z"/>
<path fill="#CE4C5F" opacity="1.000000" stroke="none" 
	d="
M113.032379,404.974884 
	C117.638298,408.023376 117.719742,413.473389 119.755280,417.856598 
	C124.475784,428.021393 128.912323,438.318115 133.774292,449.147888 
	C135.596893,452.824738 137.076126,455.931732 138.628479,459.001740 
	C141.670670,465.018158 144.762939,471.009216 147.799362,477.028503 
	C148.009460,477.445038 147.842392,478.037140 147.997147,478.498505 
	C149.502335,482.986115 150.817856,487.555939 152.645416,491.910126 
	C153.826721,494.724640 155.752304,497.230499 157.380585,499.852142 
	C158.211288,501.189636 159.874573,502.489594 159.853912,503.785675 
	C159.793762,507.556732 161.760025,509.169434 164.965363,510.002350 
	C164.656708,513.405334 164.348068,516.808289 163.991318,520.625793 
	C146.643112,482.614227 129.343018,444.188141 112.269043,405.381927 
	C112.674232,404.992859 112.853310,404.983887 113.032379,404.974884 
z"/>
<path fill="#CE5063" opacity="1.000000" stroke="none" 
	d="
M108.000702,392.000000 
	C109.004166,395.071442 110.007629,398.142853 111.004623,401.628387 
	C106.344025,392.312073 101.632431,382.608521 97.063927,372.838074 
	C95.226204,368.907898 93.702293,364.830994 91.979263,360.447449 
	C91.922966,360.074005 92.040619,359.964844 92.424515,360.027985 
	C94.789642,363.791107 96.940506,367.411835 98.715065,371.208405 
	C101.928642,378.083618 104.917831,385.063690 108.000702,392.000000 
z"/>
<path fill="#B15865" opacity="1.000000" stroke="none" 
	d="
M195.968903,477.982727 
	C196.154114,477.982819 196.339325,477.982941 196.800888,478.012085 
	C194.259186,484.625580 191.441147,491.210052 188.303314,497.969543 
	C188.776810,495.558533 189.488571,492.943787 190.384842,490.393890 
	C191.415344,487.461975 192.609100,484.587433 194.163239,481.198547 
	C195.052673,479.800323 195.510788,478.891510 195.968903,477.982727 
z"/>
<path fill="#E77185" opacity="1.000000" stroke="none" 
	d="
M282.979279,48.627350 
	C282.096100,48.508530 281.106720,48.071430 280.071075,47.279015 
	C280.974213,47.385490 281.923676,47.847279 282.979279,48.627350 
z"/>
<path fill="#CE5063" opacity="1.000000" stroke="none" 
	d="
M112.987846,404.677368 
	C112.853310,404.983887 112.674232,404.992859 112.226601,405.013855 
	C111.665070,404.541504 111.372093,404.057098 111.161346,403.267395 
	C111.810143,403.434662 112.376732,403.907227 112.987846,404.677368 
z"/>
<path fill="#B15865" opacity="1.000000" stroke="none" 
	d="
M199.320282,473.940186 
	C199.123550,473.231750 199.243683,472.361237 199.595306,471.252350 
	C199.763565,471.935364 199.700363,472.856750 199.320282,473.940186 
z"/>
<path fill="#CE4C5F" opacity="1.000000" stroke="none" 
	d="
M163.979828,521.340820 
	C164.285873,521.503601 164.624161,521.979553 164.971710,522.766235 
	C164.658020,522.602539 164.335052,522.128296 163.979828,521.340820 
z"/>
<path fill="#CE5063" opacity="1.000000" stroke="none" 
	d="
M28.097149,220.251190 
	C28.435875,220.137024 28.656559,220.355835 28.888083,220.856110 
	C28.648294,220.896683 28.341690,220.712204 28.097149,220.251190 
z"/>
<path fill="#D54B5F" opacity="1.000000" stroke="none" 
	d="
M312.274841,222.904144 
	C312.043945,222.648270 312.167145,222.403549 312.593140,222.116791 
	C312.943451,222.376633 312.854462,222.656815 312.274841,222.904144 
z"/>
<path fill="#B15865" opacity="1.000000" stroke="none" 
	d="
M185.234497,505.000854 
	C185.120132,504.816956 185.257019,504.515228 185.588409,504.052429 
	C185.683853,504.221924 185.584793,504.552460 185.234497,505.000854 
z"/>
<path fill="#B15865" opacity="1.000000" stroke="none" 
	d="
M186.235901,502.996521 
	C186.105652,502.794983 186.239914,502.474731 186.585632,501.991882 
	C186.698212,502.178833 186.599319,502.528320 186.235901,502.996521 
z"/>
<path fill="#B15865" opacity="1.000000" stroke="none" 
	d="
M187.246490,500.017212 
	C187.130020,499.828491 187.269791,499.525421 187.608337,499.063629 
	C187.705673,499.237579 187.604218,499.570221 187.246490,500.017212 
z"/>
<path fill="#E77185" opacity="1.000000" stroke="none" 
	d="
M270.072388,38.714333 
	C269.866211,38.856148 269.549164,38.719418 269.072479,38.373302 
	C269.262390,38.254543 269.611938,38.345169 270.072388,38.714333 
z"/>
<path fill="#CE5063" opacity="1.000000" stroke="none" 
	d="
M29.115234,222.242859 
	C29.461569,222.121948 29.678490,222.333954 29.894581,222.828995 
	C29.651302,222.871689 29.348660,222.692932 29.115234,222.242859 
z"/>
<path fill="#CE5063" opacity="1.000000" stroke="none" 
	d="
M30.162766,224.234863 
	C30.510504,224.100769 30.720310,224.298615 30.910938,224.783661 
	C30.672489,224.828934 30.383514,224.660904 30.162766,224.234863 
z"/>
<path fill="#B15865" opacity="1.000000" stroke="none" 
	d="
M197.282059,477.977234 
	C197.161682,477.777893 197.300278,477.480225 197.641846,477.032776 
	C197.743561,477.214935 197.642303,477.546967 197.282059,477.977234 
z"/>
<path fill="#B15865" opacity="1.000000" stroke="none" 
	d="
M197.878922,475.329834 
	C197.825577,475.037109 198.313660,474.966095 198.558441,474.935425 
	C198.706497,475.247711 198.609756,475.590698 198.258026,476.073608 
	C197.979446,476.016541 197.955856,475.819580 197.878922,475.329834 
z"/>
<path fill="#E77185" opacity="1.000000" stroke="none" 
	d="
M277.013763,43.671227 
	C276.786316,43.819511 276.485504,43.681412 276.039612,43.334694 
	C276.243164,43.212330 276.591797,43.298584 277.013763,43.671227 
z"/>
<path fill="#E77185" opacity="1.000000" stroke="none" 
	d="
M285.998169,51.738853 
	C285.808929,51.794384 285.523865,51.597332 285.124573,51.162071 
	C285.307648,51.111328 285.604980,51.298794 285.998169,51.738853 
z"/>
<path fill="#E77185" opacity="1.000000" stroke="none" 
	d="
M284.989563,50.731709 
	C284.792542,50.789360 284.510101,50.591190 284.121826,50.151741 
	C284.312012,50.098934 284.608124,50.287411 284.989563,50.731709 
z"/>
<path fill="#E77185" opacity="1.000000" stroke="none" 
	d="
M272.998749,40.686127 
	C272.778564,40.830765 272.478119,40.694767 272.028442,40.354313 
	C272.225647,40.235065 272.572083,40.320278 272.998749,40.686127 
z"/>
<path fill="#E77185" opacity="1.000000" stroke="none" 
	d="
M284.013000,49.718506 
	C283.801025,49.788864 283.513458,49.595242 283.124207,49.156731 
	C283.327454,49.092735 283.632446,49.273628 284.013000,49.718506 
z"/>
<path fill="#E77185" opacity="1.000000" stroke="none" 
	d="
M274.006470,41.719994 
	C273.791687,41.793159 273.504181,41.603378 273.120300,41.167839 
	C273.327179,41.100399 273.630463,41.278725 274.006470,41.719994 
z"/>
<path fill="#E77185" opacity="1.000000" stroke="none" 
	d="
M275.040894,42.739204 
	C274.848755,42.801186 274.544983,42.610287 274.127441,42.170235 
	C274.318848,42.109493 274.624054,42.297909 275.040894,42.739204 
z"/>
<path fill="#E77185" opacity="1.000000" stroke="none" 
	d="
M279.994659,46.729691 
	C279.793915,46.790009 279.509674,46.592426 279.121216,46.151421 
	C279.315033,46.095924 279.613129,46.283859 279.994659,46.729691 
z"/>
<path fill="#E77185" opacity="1.000000" stroke="none" 
	d="
M279.015076,45.718216 
	C278.803406,45.787434 278.516510,45.592140 278.127167,45.152321 
	C278.329773,45.089764 278.634827,45.271732 279.015076,45.718216 
z"/>
<path fill="#E77185" opacity="1.000000" stroke="none" 
	d="
M278.036835,44.697693 
	C277.807556,44.784271 277.511414,44.600712 277.123993,44.165375 
	C277.345154,44.084919 277.657532,44.256237 278.036835,44.697693 
z"/>
<path fill="#C93350" opacity="1.000000" stroke="none" 
	d="
M209.970703,430.987274 
	C209.496887,431.255768 209.023087,431.524292 208.301804,431.904785 
	C206.423477,433.325226 203.798447,434.363861 203.355774,435.994812 
	C202.213257,440.204224 202.097794,444.684998 201.431534,449.035858 
	C201.245422,450.251312 200.539520,451.381042 200.125000,452.568604 
	C196.321259,463.466064 192.599503,474.393250 188.647278,485.236450 
	C188.135666,486.640137 186.247513,487.479767 185.349533,488.817322 
	C183.245468,491.951630 181.212204,495.152466 179.423721,498.473633 
	C177.986877,501.141846 177.610336,501.304718 174.688660,499.189087 
	C168.057114,494.387146 168.888077,487.993408 169.025436,481.518097 
	C169.146866,475.794922 169.453323,470.074738 169.742493,464.356506 
	C169.885803,461.522766 168.859879,459.881012 165.406158,459.535156 
	C165.334900,444.633118 165.903656,430.201385 165.946793,415.768097 
	C166.066116,375.846893 165.966080,335.925049 165.963379,295.675385 
	C165.994507,294.910522 166.015015,294.473724 166.035507,294.036957 
	C197.826462,293.749207 228.180618,287.505096 256.680115,272.524902 
	C256.405731,275.698700 256.053375,278.671448 255.178192,281.481415 
	C250.509308,296.471710 245.665985,311.407562 240.969910,326.389496 
	C237.569199,337.238861 234.303818,348.130676 230.632065,359.061951 
	C229.321335,360.216827 227.979385,361.159210 227.457413,362.436646 
	C225.234650,367.876495 223.246719,373.412598 221.200500,378.923767 
	C221.032791,379.375458 221.131592,379.919830 221.004974,380.394043 
	C219.736145,385.145966 218.585587,389.935516 217.131241,394.630646 
	C214.542862,402.986877 211.649612,411.250824 209.203552,419.646515 
	C208.860229,420.824921 210.323013,422.529541 210.961761,424.356689 
	C210.639053,425.813629 210.304337,426.904480 209.680038,428.038757 
	C209.078217,428.397858 208.765961,428.713531 208.453705,429.029205 
	C208.948227,429.349579 209.442734,429.669952 209.948669,430.239441 
	C209.960098,430.488586 209.970703,430.987274 209.970703,430.987274 
z"/>
<path fill="#0A0405" opacity="1.000000" stroke="none" 
	d="
M154.078308,273.928223 
	C123.791336,270.501556 96.917130,259.895630 73.660683,240.715759 
	C23.024216,198.955231 12.845801,128.531448 54.763409,76.443497 
	C80.010696,45.070549 113.452591,28.627285 152.943985,24.048454 
	C189.220779,19.842344 223.516876,26.650902 254.163651,46.714928 
	C295.367828,73.690727 317.443481,111.549393 312.590057,161.761017 
	C309.490723,193.825760 293.591003,220.015762 268.751709,240.392197 
	C235.506271,267.664429 197.017136,277.788086 154.078308,273.928223 
M208.137711,38.198807 
	C201.594055,37.035847 195.090775,35.517555 188.500092,34.768318 
	C149.396088,30.322945 113.781998,39.075153 82.791336,63.886349 
	C59.332012,82.667938 44.428745,106.921150 41.241943,136.953354 
	C36.635815,180.361206 54.612732,214.369110 89.230560,239.205078 
	C122.247070,262.892181 159.717453,269.724457 199.440216,261.714233 
	C238.201462,253.897934 269.334381,234.112305 288.219025,198.595779 
	C308.206238,161.005615 305.257446,123.737358 281.674744,88.663887 
	C264.175232,62.637756 238.823639,47.000313 208.137711,38.198807 
z"/>
<path fill="#E2485D" opacity="1.000000" stroke="none" 
	d="
M209.969620,427.995300 
	C210.304337,426.904480 210.639053,425.813629 211.122726,424.026184 
	C211.722412,422.443451 212.321655,421.601807 212.601974,420.664764 
	C218.748688,400.117401 224.859985,379.559448 230.978073,359.003540 
	C234.303818,348.130676 237.569199,337.238861 240.969910,326.389496 
	C245.665985,311.407562 250.509308,296.471710 255.178192,281.481415 
	C256.053375,278.671448 256.405731,275.698700 257.001404,272.384247 
	C270.126373,264.539612 282.104584,255.541580 293.112427,245.273636 
	C296.102081,242.484940 298.599976,239.169037 301.658936,236.040573 
	C300.637207,245.092743 296.423065,252.911697 292.033966,260.919067 
	C287.364899,269.437256 284.489136,278.938354 280.829803,288.010071 
	C280.767578,288.164276 280.737122,288.410919 280.627655,288.455048 
	C274.051178,291.104126 276.381042,297.983795 273.914185,302.579468 
	C273.682343,303.011414 273.638275,303.703156 273.295654,303.893127 
	C266.762970,307.515533 268.331207,314.754974 265.851379,320.171906 
	C264.925415,322.194611 262.814697,323.674957 260.886658,325.795898 
	C264.546570,329.981934 260.360992,333.989105 258.253815,337.942627 
	C255.906723,342.346252 252.146255,346.004364 249.863647,350.431702 
	C248.422958,353.226044 249.039001,357.016418 247.888840,360.038971 
	C245.833725,365.439758 243.140823,370.597870 240.140198,375.670959 
	C235.514771,374.574036 234.721283,377.863617 234.315811,380.351166 
	C234.092880,381.718842 236.028885,383.438385 236.991486,384.999298 
	C231.996506,396.154907 227.577408,407.624756 221.740921,418.321198 
	C219.180573,423.013550 218.224915,430.177887 210.350235,430.986572 
	C209.970703,430.987274 209.960098,430.488586 209.965454,429.907379 
	C209.970413,428.882538 209.970016,428.438934 209.969620,427.995300 
M232.917328,386.346436 
	C232.574997,385.770660 232.232666,385.194916 231.890305,384.619141 
	C231.624908,385.113892 231.359497,385.608673 231.094101,386.103485 
	C231.650833,386.397217 232.207550,386.690979 232.917328,386.346436 
z"/>
<path fill="#E1465C" opacity="1.000000" stroke="none" 
	d="
M108.333344,392.032013 
	C104.917831,385.063690 101.928642,378.083618 98.715065,371.208405 
	C96.940506,367.411835 94.789642,363.791107 92.483543,359.973633 
	C90.872726,356.347198 88.434227,352.804474 88.536041,349.336304 
	C88.761635,341.650818 82.635818,337.439240 80.199783,331.322937 
	C76.365807,321.696747 72.774796,311.972107 68.823982,302.395142 
	C67.652832,299.556213 65.302650,297.215881 64.033424,294.403107 
	C57.857346,280.716217 51.858234,266.949402 45.810825,253.204575 
	C43.848572,248.744675 41.929852,244.265610 40.369385,239.397858 
	C41.503372,238.997818 42.259193,238.995255 43.015015,238.992706 
	C44.479771,240.882446 45.944530,242.772186 47.704384,245.236053 
	C47.678371,248.514008 48.003376,250.904602 51.044903,252.318497 
	C51.726330,253.091339 52.363010,253.545670 52.999794,254.418503 
	C53.233829,256.435852 52.966179,259.063538 53.784969,259.462708 
	C58.315830,261.671631 56.707584,265.593903 57.040932,269.302185 
	C58.053562,269.402924 59.026779,269.201477 60.216423,268.888428 
	C60.702610,268.576874 60.891663,268.317902 61.359863,268.073090 
	C61.631653,270.112305 61.793488,272.132446 61.383724,274.029083 
	C60.990715,275.848175 58.898109,278.449799 59.462566,279.135803 
	C62.657326,283.018524 66.426277,286.428833 70.141006,290.317017 
	C73.277283,293.687927 71.758163,297.489868 72.171265,301.241089 
	C72.895134,301.654755 73.447701,301.827362 74.293762,302.151276 
	C74.914482,303.148987 75.106529,304.086456 75.600899,304.820251 
	C76.323318,305.892578 77.348778,307.728943 78.095558,307.658356 
	C82.699142,307.223022 84.851974,308.535034 83.389427,313.479858 
	C83.237648,313.993011 83.650894,314.715454 83.900391,315.298676 
	C86.595146,321.597870 89.343018,327.874542 92.002693,334.188416 
	C93.102783,336.799927 93.884689,339.550751 95.064011,342.122284 
	C96.575928,345.419098 99.115105,348.440552 99.817886,351.866547 
	C100.862747,356.960144 100.229057,362.366516 104.568871,366.466980 
	C105.794624,367.625092 106.953522,369.803650 106.765717,371.346527 
	C105.872795,378.681793 109.299500,384.714417 112.000305,391.000000 
	C110.888863,391.354675 109.777428,391.709351 108.333344,392.032013 
z"/>
<path fill="#E4465A" opacity="1.000000" stroke="none" 
	d="
M57.001526,269.000000 
	C56.707584,265.593903 58.315830,261.671631 53.784969,259.462708 
	C52.966179,259.063538 53.233829,256.435852 52.955070,254.100006 
	C52.273544,252.908676 51.636845,252.454346 51.000149,252.000000 
	C48.003376,250.904602 47.678371,248.514008 47.999084,245.398438 
	C54.554779,250.269211 60.883392,255.868927 67.714424,260.768097 
	C81.852516,270.907776 96.820938,279.248444 113.642708,284.650238 
	C130.521149,290.070221 147.696487,292.468964 165.592316,294.023804 
	C166.015015,294.473724 165.994507,294.910522 165.596436,295.723175 
	C162.758408,296.444641 160.290573,297.114899 157.839203,297.059265 
	C154.219986,296.977142 150.612488,296.378601 146.555832,296.000000 
	C143.741104,296.000000 141.370560,296.000000 138.828705,295.758972 
	C138.104950,295.345276 137.552475,295.172638 136.663483,294.848297 
	C133.884628,294.131073 131.442322,293.565521 128.725266,292.719452 
	C126.300354,292.292603 124.150177,292.146301 121.627968,291.994537 
	C115.158440,289.280304 109.030716,286.637146 102.970810,283.846741 
	C94.744446,280.058716 84.662544,280.113403 78.480782,272.067383 
	C78.410439,271.975861 78.164162,272.019470 77.738800,271.725616 
	C74.245552,271.039703 71.492996,270.521423 69.620323,266.943481 
	C67.905937,263.667969 63.534019,264.498962 61.000000,268.000000 
	C60.891663,268.317902 60.702610,268.576874 59.841595,268.888428 
	C58.500736,269.000000 57.751133,269.000000 57.001526,269.000000 
z"/>
<path fill="#E2485D" opacity="1.000000" stroke="none" 
	d="
M305.700195,231.109863 
	C305.234192,231.973572 304.493866,232.980164 303.384033,233.997711 
	C303.818298,233.090042 304.622101,232.171402 305.700195,231.109863 
z"/>
<path fill="#E3475B" opacity="1.000000" stroke="none" 
	d="
M42.889328,238.727020 
	C42.259193,238.995255 41.503372,238.997818 40.369644,239.000793 
	C40.163975,238.444107 40.336220,237.886978 40.749596,237.154633 
	C41.581699,237.473358 42.172668,237.967331 42.889328,238.727020 
z"/>
<path fill="#E2475C" opacity="1.000000" stroke="none" 
	d="
M147.000000,296.000000 
	C150.612488,296.378601 154.219986,296.977142 157.839203,297.059265 
	C160.290573,297.114899 162.758408,296.444641 165.585815,296.051270 
	C165.966080,335.925049 166.066116,375.846893 165.946793,415.768097 
	C165.903656,430.201385 165.334900,444.633118 165.015396,459.534546 
	C165.013885,467.022919 165.002991,474.042358 164.618317,481.574646 
	C161.949814,483.684601 159.655090,485.281677 156.509018,487.471252 
	C154.942581,484.777893 152.971588,481.388947 151.395569,477.991150 
	C156.963730,476.623901 154.841522,473.224884 154.089813,470.095978 
	C153.734085,468.615204 153.824020,467.027344 153.712051,465.488007 
	C155.221222,465.812225 156.727722,466.149689 158.241150,466.452667 
	C158.700546,466.544678 159.179016,466.541351 160.423676,466.648193 
	C160.946213,464.515686 162.012497,462.341949 161.915634,460.221344 
	C160.980789,439.755280 163.986435,419.234375 161.066223,398.799011 
	C160.953735,398.011932 161.320175,397.168274 161.356644,396.346222 
	C161.793015,386.506409 163.446136,376.689575 160.321487,366.877502 
	C159.270630,363.577606 159.188217,359.547729 159.974396,356.155396 
	C163.928421,339.093506 161.250977,321.905701 162.043884,305.142639 
	C157.075241,302.753754 152.663666,300.717102 148.357956,298.476990 
	C147.663635,298.115814 147.440781,296.848480 147.000000,296.000000 
z"/>
<path fill="#DE465A" opacity="1.000000" stroke="none" 
	d="
M151.000610,478.000000 
	C152.971588,481.388947 154.942581,484.777893 156.509018,487.471252 
	C159.655090,485.281677 161.949814,483.684601 164.611786,482.043091 
	C164.981277,491.020721 164.983490,500.042755 164.975525,509.533569 
	C161.760025,509.169434 159.793762,507.556732 159.853912,503.785675 
	C159.874573,502.489594 158.211288,501.189636 157.380585,499.852142 
	C155.752304,497.230499 153.826721,494.724640 152.645416,491.910126 
	C150.817856,487.555939 149.502335,482.986115 147.997147,478.498505 
	C147.842392,478.037140 148.009460,477.445038 147.799362,477.028503 
	C144.762939,471.009216 141.670670,465.018158 138.628479,459.001740 
	C137.076126,455.931732 135.596893,452.824738 134.038055,449.372009 
	C134.768204,447.713043 135.544922,446.416504 136.660812,445.059998 
	C137.000000,445.000000 137.000610,445.000000 137.028717,445.320312 
	C137.704346,446.427063 138.351868,447.213531 139.000671,448.407471 
	C139.334869,451.209991 139.667740,453.604980 140.045227,456.318481 
	C140.726364,457.091309 141.362885,457.545654 142.037994,458.349518 
	C147.376144,464.057770 147.982727,471.586334 151.000610,478.000000 
z"/>
<path fill="#D54B5F" opacity="1.000000" stroke="none" 
	d="
M195.684387,478.128967 
	C195.510788,478.891510 195.052673,479.800323 194.313080,480.859924 
	C194.487701,480.098877 194.943771,479.187012 195.684387,478.128967 
z"/>
<path fill="#E3445B" opacity="1.000000" stroke="none" 
	d="
M237.000519,384.624237 
	C236.028885,383.438385 234.092880,381.718842 234.315811,380.351166 
	C234.721283,377.863617 235.514771,374.574036 239.785431,375.744324 
	C239.006561,378.752472 238.008057,381.500824 237.000519,384.624237 
z"/>
<path fill="#E4465D" opacity="1.000000" stroke="none" 
	d="
M151.395584,477.991150 
	C147.982727,471.586334 147.376144,464.057770 141.993378,458.031036 
	C141.273651,456.908691 140.637131,456.454346 140.000610,456.000000 
	C139.667740,453.604980 139.334869,451.209991 138.994904,448.055176 
	C138.325409,446.530243 137.663010,445.765137 137.000610,445.000000 
	C137.000610,445.000000 137.000000,445.000000 137.000305,445.000000 
	C137.216537,443.206909 137.500198,441.418427 137.623428,439.618988 
	C137.699493,438.508453 137.904327,436.619812 137.414459,436.379669 
	C132.709534,434.073181 135.155640,430.074951 135.055710,426.810455 
	C134.847549,420.010529 134.270615,419.478455 127.654510,421.943359 
	C127.777084,417.273956 123.058640,413.891174 125.575546,408.367828 
	C126.273125,406.837006 123.394363,402.396790 121.121239,401.084351 
	C117.484573,398.984711 115.167320,396.686523 114.560921,392.550415 
	C114.478447,391.987793 113.365166,391.576294 112.364738,391.047394 
	C109.299500,384.714417 105.872795,378.681793 106.765717,371.346527 
	C106.953522,369.803650 105.794624,367.625092 104.568871,366.466980 
	C100.229057,362.366516 100.862747,356.960144 99.817886,351.866547 
	C99.115105,348.440552 96.575928,345.419098 95.064011,342.122284 
	C93.884689,339.550751 93.102783,336.799927 92.002693,334.188416 
	C89.343018,327.874542 86.595146,321.597870 83.900391,315.298676 
	C83.650894,314.715454 83.237648,313.993011 83.389427,313.479858 
	C84.851974,308.535034 82.699142,307.223022 78.095558,307.658356 
	C77.348778,307.728943 76.323318,305.892578 75.600899,304.820251 
	C75.106529,304.086456 74.914482,303.148987 74.260895,301.861908 
	C73.289658,301.280823 72.644806,301.140411 71.999954,301.000000 
	C71.758163,297.489868 73.277283,293.687927 70.191505,289.933655 
	C70.734116,286.768707 71.782745,284.325378 71.910492,281.834808 
	C72.143105,277.299774 73.133240,273.531769 78.000000,272.000000 
	C78.164162,272.019470 78.410439,271.975861 78.480782,272.067383 
	C84.662544,280.113403 94.744446,280.058716 102.970810,283.846741 
	C109.030716,286.637146 115.158440,289.280304 121.679337,292.368042 
	C124.293526,295.784088 126.567215,296.560638 129.000000,293.000000 
	C131.442322,293.565521 133.884628,294.131073 136.696289,295.137634 
	C137.710434,295.719116 138.355209,295.859558 139.000000,296.000000 
	C141.370560,296.000000 143.741104,296.000000 146.555832,296.000000 
	C147.440781,296.848480 147.663635,298.115814 148.357956,298.476990 
	C152.663666,300.717102 157.075241,302.753754 162.043884,305.142639 
	C161.250977,321.905701 163.928421,339.093506 159.974396,356.155396 
	C159.188217,359.547729 159.270630,363.577606 160.321487,366.877502 
	C163.446136,376.689575 161.793015,386.506409 161.356644,396.346222 
	C161.320175,397.168274 160.953735,398.011932 161.066223,398.799011 
	C163.986435,419.234375 160.980789,439.755280 161.915634,460.221344 
	C162.012497,462.341949 160.946213,464.515686 160.423676,466.648193 
	C159.179016,466.541351 158.700546,466.544678 158.241150,466.452667 
	C156.727722,466.149689 155.221222,465.812225 153.712051,465.488007 
	C153.824020,467.027344 153.734085,468.615204 154.089813,470.095978 
	C154.841522,473.224884 156.963730,476.623901 151.395584,477.991150 
M125.705353,388.727081 
	C126.725220,388.835388 128.546310,389.261719 128.647995,389.005554 
	C131.314331,382.287689 136.494339,384.178314 141.683014,384.601135 
	C146.886948,385.025238 153.503204,389.623230 156.552429,381.136444 
	C155.716202,379.163727 154.154144,377.226868 154.226700,375.353271 
	C154.578156,366.277771 154.952118,357.162842 156.169540,348.177216 
	C156.831497,343.291351 158.762909,338.776917 154.215805,334.712372 
	C153.539734,334.108032 154.161697,332.145233 154.021881,330.828033 
	C153.720703,327.990845 154.147263,324.649170 152.779648,322.440491 
	C149.851181,317.710968 148.565872,312.969818 148.883377,307.448090 
	C149.095688,303.756226 147.000549,301.495911 142.916245,302.007660 
	C139.313431,302.459076 135.623123,302.617462 132.144913,303.551300 
	C128.171005,304.618256 127.005630,303.182922 127.368507,300.120026 
	C124.862953,299.928284 122.489761,299.746674 120.116562,299.565063 
	C118.083862,301.651398 113.874832,304.157166 113.459068,303.636108 
	C109.817917,299.072845 97.898880,304.589935 100.266457,292.985321 
	C100.346130,292.594788 99.351036,292.061859 99.026001,291.497833 
	C97.970108,289.665649 97.058937,287.747894 95.960060,285.943451 
	C95.325546,284.901581 94.604927,283.773254 93.634865,283.097748 
	C88.352005,279.418884 86.321770,287.825806 81.459023,286.584290 
	C80.995018,286.465820 79.396088,288.966797 79.095535,290.412109 
	C78.459961,293.468597 78.412064,296.641937 77.981094,299.747620 
	C77.406250,303.890137 79.046379,305.228210 83.227684,305.095825 
	C90.515335,304.865112 94.355553,308.878571 95.026741,316.274231 
	C95.560829,322.159241 96.287933,328.029480 97.082726,333.885468 
	C97.221176,334.905518 97.883629,336.283813 98.709343,336.708405 
	C102.699913,338.760315 103.425217,342.502197 103.953110,346.297882 
	C104.570572,350.737701 105.725197,354.672150 110.192085,356.880890 
	C111.273041,357.415405 112.634811,358.822021 112.647346,359.842621 
	C112.726128,366.261536 117.988770,367.922302 121.824142,370.820435 
	C124.565720,369.878998 127.059494,365.952087 129.542587,370.425873 
	C132.017853,374.885620 129.337280,379.075348 122.095177,382.050323 
	C123.139832,384.118073 124.172966,386.163025 125.705353,388.727081 
M75.633141,289.452789 
	C75.623573,290.135284 75.614014,290.817810 75.604446,291.500305 
	C76.144600,291.338989 76.684753,291.177673 77.224907,291.016327 
	C76.886780,290.451538 76.548645,289.886780 75.633141,289.452789 
z"/>
<path fill="#C6344D" opacity="1.000000" stroke="none" 
	d="
M230.632065,359.061951 
	C224.859985,379.559448 218.748688,400.117401 212.601974,420.664764 
	C212.321655,421.601807 211.722412,422.443451 211.110718,423.660034 
	C210.323013,422.529541 208.860229,420.824921 209.203552,419.646515 
	C211.649612,411.250824 214.542862,402.986877 217.131241,394.630646 
	C218.585587,389.935516 219.736145,385.145966 221.004974,380.394043 
	C221.131592,379.919830 221.032791,379.375458 221.200500,378.923767 
	C223.246719,373.412598 225.234650,367.876495 227.457413,362.436646 
	C227.979385,361.159210 229.321335,360.216827 230.632065,359.061951 
z"/>
<path fill="#C6344D" opacity="1.000000" stroke="none" 
	d="
M209.680038,428.038757 
	C209.970016,428.438934 209.970413,428.882538 209.954025,429.658264 
	C209.442734,429.669952 208.948227,429.349579 208.453705,429.029205 
	C208.765961,428.713531 209.078217,428.397858 209.680038,428.038757 
z"/>
<path fill="#FDFDFD" opacity="1.000000" stroke="none" 
	d="
M208.525055,38.328712 
	C238.823639,47.000313 264.175232,62.637756 281.674744,88.663887 
	C305.257446,123.737358 308.206238,161.005615 288.219025,198.595779 
	C269.334381,234.112305 238.201462,253.897934 199.440216,261.714233 
	C159.717453,269.724457 122.247070,262.892181 89.230560,239.205078 
	C54.612732,214.369110 36.635815,180.361206 41.241943,136.953354 
	C44.428745,106.921150 59.332012,82.667938 82.791336,63.886349 
	C113.781998,39.075153 149.396088,30.322945 188.500092,34.768318 
	C195.090775,35.517555 201.594055,37.035847 208.525055,38.328712 
M200.669479,80.835228 
	C197.814804,75.761780 195.251099,70.495590 192.044662,65.655174 
	C185.439148,55.683525 171.982620,52.399326 162.209427,59.220356 
	C157.690109,62.374527 154.234650,67.641594 151.450317,72.598610 
	C131.655106,107.840256 112.126701,143.232056 92.579758,178.612732 
	C82.557846,196.752762 93.316589,214.990707 113.958511,214.992462 
	C153.923462,214.995865 193.888428,214.990845 233.853378,214.986786 
	C253.989700,214.984741 264.937408,196.312347 255.144150,178.722733 
	C237.098648,146.311234 219.076309,113.886841 200.669479,80.835228 
z"/>
<path fill="#D54B5F" opacity="1.000000" stroke="none" 
	d="
M232.840790,386.665588 
	C232.207550,386.690979 231.650833,386.397217 231.094101,386.103455 
	C231.359497,385.608673 231.624908,385.113892 231.890320,384.619141 
	C232.232666,385.194916 232.574997,385.770660 232.840790,386.665588 
z"/>
<path fill="#E3475B" opacity="1.000000" stroke="none" 
	d="
M77.738800,271.725647 
	C73.133240,273.531769 72.143105,277.299774 71.910492,281.834808 
	C71.782745,284.325378 70.734116,286.768707 70.050201,289.616669 
	C66.426277,286.428833 62.657326,283.018524 59.462566,279.135803 
	C58.898109,278.449799 60.990715,275.848175 61.383724,274.029083 
	C61.793488,272.132446 61.631653,270.112305 61.359863,268.073090 
	C63.534019,264.498962 67.905937,263.667969 69.620323,266.943481 
	C71.492996,270.521423 74.245552,271.039703 77.738800,271.725647 
z"/>
<path fill="#E3475B" opacity="1.000000" stroke="none" 
	d="
M57.040932,269.302185 
	C57.751133,269.000000 58.500736,269.000000 59.625172,269.000000 
	C59.026779,269.201477 58.053562,269.402924 57.040932,269.302185 
z"/>
<path fill="#E3475B" opacity="1.000000" stroke="none" 
	d="
M72.171265,301.241058 
	C72.644806,301.140411 73.289658,301.280823 73.967384,301.710632 
	C73.447701,301.827362 72.895134,301.654755 72.171265,301.241058 
z"/>
<path fill="#E3475B" opacity="1.000000" stroke="none" 
	d="
M51.044899,252.318512 
	C51.636845,252.454346 52.273544,252.908676 52.954967,253.681503 
	C52.363010,253.545670 51.726330,253.091339 51.044899,252.318512 
z"/>
<path fill="#E2475C" opacity="1.000000" stroke="none" 
	d="
M128.725266,292.719452 
	C126.567215,296.560638 124.293526,295.784088 122.051376,292.373474 
	C124.150177,292.146301 126.300354,292.292603 128.725266,292.719452 
z"/>
<path fill="#E2475C" opacity="1.000000" stroke="none" 
	d="
M138.828705,295.758972 
	C138.355209,295.859558 137.710434,295.719116 137.032822,295.289368 
	C137.552475,295.172638 138.104950,295.345276 138.828705,295.758972 
z"/>
<path fill="#E1455B" opacity="1.000000" stroke="none" 
	d="
M137.028717,445.320312 
	C137.663010,445.765137 138.325409,446.530243 138.993591,447.647705 
	C138.351868,447.213531 137.704346,446.427063 137.028717,445.320312 
z"/>
<path fill="#E1455B" opacity="1.000000" stroke="none" 
	d="
M140.045227,456.318481 
	C140.637131,456.454346 141.273651,456.908691 141.954788,457.681519 
	C141.362885,457.545654 140.726364,457.091309 140.045227,456.318481 
z"/>
<path fill="#E54760" opacity="1.000000" stroke="none" 
	d="
M125.455734,388.467529 
	C124.172966,386.163025 123.139832,384.118073 122.095177,382.050323 
	C129.337280,379.075348 132.017853,374.885620 129.542587,370.425873 
	C127.059494,365.952087 124.565720,369.878998 121.824142,370.820435 
	C117.988770,367.922302 112.726128,366.261536 112.647346,359.842621 
	C112.634811,358.822021 111.273041,357.415405 110.192085,356.880890 
	C105.725197,354.672150 104.570572,350.737701 103.953110,346.297882 
	C103.425217,342.502197 102.699913,338.760315 98.709343,336.708405 
	C97.883629,336.283813 97.221176,334.905518 97.082726,333.885468 
	C96.287933,328.029480 95.560829,322.159241 95.026741,316.274231 
	C94.355553,308.878571 90.515335,304.865112 83.227684,305.095825 
	C79.046379,305.228210 77.406250,303.890137 77.981094,299.747620 
	C78.412064,296.641937 78.459961,293.468597 79.095535,290.412109 
	C79.396088,288.966797 80.995018,286.465820 81.459023,286.584290 
	C86.321770,287.825806 88.352005,279.418884 93.634865,283.097748 
	C94.604927,283.773254 95.325546,284.901581 95.960060,285.943451 
	C97.058937,287.747894 97.970108,289.665649 99.026001,291.497833 
	C99.351036,292.061859 100.346130,292.594788 100.266457,292.985321 
	C97.898880,304.589935 109.817917,299.072845 113.459068,303.636108 
	C113.874832,304.157166 118.083862,301.651398 120.116562,299.565063 
	C122.489761,299.746674 124.862953,299.928284 127.368507,300.120026 
	C127.005630,303.182922 128.171005,304.618256 132.144913,303.551300 
	C135.623123,302.617462 139.313431,302.459076 142.916245,302.007660 
	C147.000549,301.495911 149.095688,303.756226 148.883377,307.448090 
	C148.565872,312.969818 149.851181,317.710968 152.779648,322.440491 
	C154.147263,324.649170 153.720703,327.990845 154.021881,330.828033 
	C154.161697,332.145233 153.539734,334.108032 154.215805,334.712372 
	C158.762909,338.776917 156.831497,343.291351 156.169540,348.177216 
	C154.952118,357.162842 154.578156,366.277771 154.226700,375.353271 
	C154.154144,377.226868 155.716202,379.163727 156.552429,381.136444 
	C153.503204,389.623230 146.886948,385.025238 141.683014,384.601135 
	C136.494339,384.178314 131.314331,382.287689 128.647995,389.005554 
	C128.546310,389.261719 126.725220,388.835388 125.455734,388.467529 
z"/>
<path fill="#E3475B" opacity="1.000000" stroke="none" 
	d="
M75.921829,289.387390 
	C76.548645,289.886780 76.886780,290.451538 77.224907,291.016327 
	C76.684753,291.177673 76.144600,291.338989 75.604446,291.500305 
	C75.614014,290.817810 75.623573,290.135284 75.921829,289.387390 
z"/>
<path fill="#FB5263" opacity="1.000000" stroke="none" 
	d="
M200.856903,81.151520 
	C219.076309,113.886841 237.098648,146.311234 255.144150,178.722733 
	C264.937408,196.312347 253.989700,214.984741 233.853378,214.986786 
	C193.888428,214.990845 153.923462,214.995865 113.958511,214.992462 
	C93.316589,214.990707 82.557846,196.752762 92.579758,178.612732 
	C112.126701,143.232056 131.655106,107.840256 151.450317,72.598610 
	C154.234650,67.641594 157.690109,62.374527 162.209427,59.220356 
	C171.982620,52.399326 185.439148,55.683525 192.044662,65.655174 
	C195.251099,70.495590 197.814804,75.761780 200.856903,81.151520 
M185.546326,106.143364 
	C185.683472,103.983368 185.901459,101.824913 185.942810,99.663086 
	C186.073959,92.806770 182.853470,89.454056 176.085159,89.342094 
	C174.420776,89.314560 172.753662,89.335930 171.090088,89.396835 
	C164.660080,89.632217 161.487701,92.717262 161.822189,99.105843 
	C162.944962,120.550163 164.198868,141.988113 165.525665,163.420898 
	C165.879120,169.130692 168.959900,172.133377 173.790237,172.117538 
	C178.732773,172.101334 181.678009,168.791870 182.036377,162.879715 
	C183.164169,144.274002 184.298492,125.668678 185.546326,106.143364 
M166.955078,195.411621 
	C171.163345,199.516510 174.936996,200.067352 178.790329,197.139221 
	C182.220230,194.532898 183.261276,189.346695 181.132156,185.472885 
	C178.994263,181.583054 174.474167,179.949860 170.484314,181.625610 
	C166.315170,183.376633 164.555420,187.661087 165.880493,192.889404 
	C166.042145,193.527176 166.317337,194.136154 166.955078,195.411621 
z"/>
<path fill="#0A0203" opacity="1.000000" stroke="none" 
	d="
M185.488312,106.603287 
	C184.298492,125.668678 183.164169,144.274002 182.036377,162.879715 
	C181.678009,168.791870 178.732773,172.101334 173.790237,172.117538 
	C168.959900,172.133377 165.879120,169.130692 165.525665,163.420898 
	C164.198868,141.988113 162.944962,120.550163 161.822189,99.105843 
	C161.487701,92.717262 164.660080,89.632217 171.090088,89.396835 
	C172.753662,89.335930 174.420776,89.314560 176.085159,89.342094 
	C182.853470,89.454056 186.073959,92.806770 185.942810,99.663086 
	C185.901459,101.824913 185.683472,103.983368 185.488312,106.603287 
z"/>
<path fill="#130304" opacity="1.000000" stroke="none" 
	d="
M166.747498,195.085052 
	C166.317337,194.136154 166.042145,193.527176 165.880493,192.889404 
	C164.555420,187.661087 166.315170,183.376633 170.484314,181.625610 
	C174.474167,179.949860 178.994263,181.583054 181.132156,185.472885 
	C183.261276,189.346695 182.220230,194.532898 178.790329,197.139221 
	C174.936996,200.067352 171.163345,199.516510 166.747498,195.085052 
z"/>
</svg>